<svg width="370" height="333" viewBox="0 0 370 333" fill="none" xmlns="http://www.w3.org/2000/svg">
<g clip-path="url(#clip0_381_453)">
<path d="M117.582 333.509C181.974 333.509 234.175 281.123 234.175 216.501C234.175 151.879 181.974 99.4927 117.582 99.4927C53.1896 99.4927 0.989258 151.879 0.989258 216.501C0.989258 281.123 53.1896 333.509 117.582 333.509Z" fill="#F8F9FA"/>
<path d="M312.186 20.9771H1.2334V167.816H312.186V20.9771Z" fill="#F8F9FA"/>
<path d="M312 323.671V31.329C312 26.1768 308.85 22 304.964 22L171.036 22C167.15 22 164 26.1768 164 31.329L164 323.671C164 328.823 167.15 333 171.036 333H304.964C308.85 333 312 328.823 312 323.671Z" fill="#F8F9FA"/>
<path d="M320.206 222.109C347.807 222.109 370.181 198.354 370.181 169.05C370.181 139.746 347.807 115.99 320.206 115.99C292.606 115.99 270.232 139.746 270.232 169.05C270.232 198.354 292.606 222.109 320.206 222.109Z" fill="#F8F9FA"/>
<path d="M312.187 286.274V22.2109L115.99 22.2109L115.99 286.274H312.187Z" fill="#F8F9FA"/>
<path d="M195.22 23H117.78C53.2843 23 1 74.8337 1 138.774V217.226C1 281.166 53.2843 333 117.78 333H195.22C259.716 333 312 281.166 312 217.226V138.774C312 74.8337 259.716 23 195.22 23Z" fill="#F8F9FA"/>
<path d="M75.8868 169.05C99.3981 169.05 118.458 151.924 118.458 130.798C118.458 109.671 99.3981 92.5454 75.8868 92.5454C52.3756 92.5454 33.3159 109.671 33.3159 130.798C33.3159 151.924 52.3756 169.05 75.8868 169.05Z" fill="#212529"/>
<path d="M118.458 83.9077V130.797H33.3159V83.9077H118.458Z" fill="#F8F9FA"/>
<path d="M206.685 167.816C230.196 167.816 249.256 150.966 249.256 130.181C249.256 109.395 230.196 92.5454 206.685 92.5454C183.173 92.5454 164.114 109.395 164.114 130.181C164.114 150.966 183.173 167.816 206.685 167.816Z" fill="#212529"/>
<path d="M249.256 83.9077V130.797H164.114V83.9077H249.256Z" fill="#F8F9FA"/>
<path d="M156.71 41.9539C242.577 41.9539 312.187 32.5622 312.187 20.977C312.187 9.39171 242.577 0 156.71 0C70.843 0 1.23389 9.39171 1.23389 20.977C1.23389 32.5622 70.843 41.9539 156.71 41.9539Z" fill="#F8F9FA"/>
</g>
<defs>
<clipPath id="clip0_381_453">
<rect width="369.901" height="333" fill="white"/>
</clipPath>
</defs>
</svg>
